<svg xmlns="http://www.w3.org/2000/svg" xmlns:xlink="http://www.w3.org/1999/xlink" width="500" zoomAndPan="magnify" viewBox="0 0 375 374.999991" height="500" preserveAspectRatio="xMidYMid meet" version="1.0"><defs><g/><clipPath id="7e26634608"><path d="M 12.925781 233.683594 L 361.789062 233.683594 L 361.789062 256.171875 L 12.925781 256.171875 Z M 12.925781 233.683594 " clip-rule="nonzero"/></clipPath><clipPath id="1867715b9a"><path d="M 361.703125 244.929688 C 361.703125 247.910156 360.519531 250.769531 358.410156 252.878906 C 356.300781 254.988281 353.441406 256.171875 350.457031 256.171875 L 24.171875 256.171875 C 21.1875 256.171875 18.328125 254.988281 16.21875 252.878906 C 14.109375 250.769531 12.925781 247.910156 12.925781 244.929688 C 12.925781 241.945312 14.109375 239.085938 16.21875 236.976562 C 18.328125 234.867188 21.1875 233.683594 24.171875 233.683594 L 350.457031 233.683594 C 353.441406 233.683594 356.300781 234.867188 358.410156 236.976562 C 360.519531 239.085938 361.703125 241.945312 361.703125 244.929688 Z M 361.703125 244.929688 " clip-rule="nonzero"/></clipPath><clipPath id="231c7b160e"><path d="M 0.925781 0.683594 L 349.789062 0.683594 L 349.789062 23.171875 L 0.925781 23.171875 Z M 0.925781 0.683594 " clip-rule="nonzero"/></clipPath><clipPath id="3885fc2deb"><path d="M 349.703125 11.929688 C 349.703125 14.910156 348.519531 17.769531 346.410156 19.878906 C 344.300781 21.988281 341.441406 23.171875 338.457031 23.171875 L 12.171875 23.171875 C 9.1875 23.171875 6.328125 21.988281 4.21875 19.878906 C 2.109375 17.769531 0.925781 14.910156 0.925781 11.929688 C 0.925781 8.945312 2.109375 6.085938 4.21875 3.976562 C 6.328125 1.867188 9.1875 0.683594 12.171875 0.683594 L 338.457031 0.683594 C 341.441406 0.683594 344.300781 1.867188 346.410156 3.976562 C 348.519531 6.085938 349.703125 8.945312 349.703125 11.929688 Z M 349.703125 11.929688 " clip-rule="nonzero"/></clipPath><clipPath id="11ba64bbe5"><rect x="0" width="350" y="0" height="24"/></clipPath><clipPath id="372634086c"><path d="M 12.925781 233.6875 L 361.496094 233.6875 L 361.496094 244.929688 L 12.925781 244.929688 Z M 12.925781 233.6875 " clip-rule="nonzero"/></clipPath><clipPath id="f255f818de"><path d="M 0.925781 0.6875 L 349.496094 0.6875 L 349.496094 11.929688 L 0.925781 11.929688 Z M 0.925781 0.6875 " clip-rule="nonzero"/></clipPath><clipPath id="33466efd85"><rect x="0" width="350" y="0" height="12"/></clipPath><clipPath id="ec86750f67"><path d="M 12.925781 135.316406 L 361.496094 135.316406 L 361.496094 146.558594 L 12.925781 146.558594 Z M 12.925781 135.316406 " clip-rule="nonzero"/></clipPath><clipPath id="0b8613eb6f"><path d="M 0.925781 0.316406 L 349.496094 0.316406 L 349.496094 11.558594 L 0.925781 11.558594 Z M 0.925781 0.316406 " clip-rule="nonzero"/></clipPath><clipPath id="3dfad21eae"><rect x="0" width="350" y="0" height="12"/></clipPath><clipPath id="692b5ce594"><path d="M 12.925781 125.644531 L 361.734375 125.644531 L 361.734375 135.316406 L 12.925781 135.316406 Z M 12.925781 125.644531 " clip-rule="nonzero"/></clipPath><clipPath id="138a8edc90"><path d="M 41.050781 125.644531 L 333.59375 125.644531 L 361.71875 135.316406 L 12.925781 135.316406 Z M 41.050781 125.644531 " clip-rule="nonzero"/></clipPath><clipPath id="efd8bda46a"><path d="M 0.925781 0.644531 L 349.734375 0.644531 L 349.734375 10.316406 L 0.925781 10.316406 Z M 0.925781 0.644531 " clip-rule="nonzero"/></clipPath><clipPath id="e748bf1de3"><path d="M 29.050781 0.644531 L 321.59375 0.644531 L 349.71875 10.316406 L 0.925781 10.316406 Z M 29.050781 0.644531 " clip-rule="nonzero"/></clipPath><clipPath id="c119ad9034"><rect x="0" width="350" y="0" height="11"/></clipPath><clipPath id="d94c6648ea"><path d="M 339.890625 135.378906 L 347.382812 135.378906 L 347.382812 233.683594 L 339.890625 233.683594 Z M 339.890625 135.378906 " clip-rule="nonzero"/></clipPath><clipPath id="c1bbb6bb08"><path d="M 0.890625 0.378906 L 8.382812 0.378906 L 8.382812 98.683594 L 0.890625 98.683594 Z M 0.890625 0.378906 " clip-rule="nonzero"/></clipPath><clipPath id="e5424d6458"><rect x="0" width="9" y="0" height="99"/></clipPath><clipPath id="d3f6a29f1e"><path d="M 354.226562 135.378906 L 361.71875 135.378906 L 361.71875 244.921875 L 354.226562 244.921875 Z M 354.226562 135.378906 " clip-rule="nonzero"/></clipPath><clipPath id="3a499cd33d"><path d="M 0.226562 0.378906 L 7.71875 0.378906 L 7.71875 109.921875 L 0.226562 109.921875 Z M 0.226562 0.378906 " clip-rule="nonzero"/></clipPath><clipPath id="cbf40abcef"><rect x="0" width="8" y="0" height="110"/></clipPath><clipPath id="96162abe41"><path d="M 12.921875 135.382812 L 20.414062 135.382812 L 20.414062 244.925781 L 12.921875 244.925781 Z M 12.921875 135.382812 " clip-rule="nonzero"/></clipPath><clipPath id="a3e8f16c67"><path d="M 0.921875 0.382812 L 8.414062 0.382812 L 8.414062 109.925781 L 0.921875 109.925781 Z M 0.921875 0.382812 " clip-rule="nonzero"/></clipPath><clipPath id="560a13dbfd"><rect x="0" width="9" y="0" height="110"/></clipPath><clipPath id="0b6fd1e7b1"><path d="M 26.316406 135.378906 L 33.808594 135.378906 L 33.808594 233.683594 L 26.316406 233.683594 Z M 26.316406 135.378906 " clip-rule="nonzero"/></clipPath><clipPath id="050b98e287"><path d="M 0.316406 0.378906 L 7.808594 0.378906 L 7.808594 98.683594 L 0.316406 98.683594 Z M 0.316406 0.378906 " clip-rule="nonzero"/></clipPath><clipPath id="a7f905973d"><rect x="0" width="8" y="0" height="99"/></clipPath></defs><g fill="#fefefe" fill-opacity="1"><g transform="translate(38.753502, 227.024867)"><g><path d="M 19.40625 -70 L 30.59375 -70 C 35.332031 -70 38.914062 -68.78125 41.34375 -66.34375 C 43.78125 -63.914062 45 -60.332031 45 -55.59375 L 45 -49 C 45 -47.9375 44.46875 -47.40625 43.40625 -47.40625 L 33.296875 -47.40625 C 32.234375 -47.40625 31.703125 -47.9375 31.703125 -49 L 31.703125 -53.203125 C 31.703125 -55.867188 30.367188 -57.203125 27.703125 -57.203125 L 22.203125 -57.203125 C 19.535156 -57.203125 18.203125 -55.867188 18.203125 -53.203125 L 18.203125 -44.703125 L 42.40625 -36.90625 C 44.132812 -36.300781 45 -35.066406 45 -33.203125 L 45 -14.40625 C 45 -9.738281 43.78125 -6.171875 41.34375 -3.703125 C 38.914062 -1.234375 35.332031 0 30.59375 0 L 19.40625 0 C 14.738281 0 11.171875 -1.234375 8.703125 -3.703125 C 6.234375 -6.171875 5 -9.738281 5 -14.40625 L 5 -20.90625 C 5 -21.96875 5.53125 -22.5 6.59375 -22.5 L 16.703125 -22.5 C 17.765625 -22.5 18.296875 -21.96875 18.296875 -20.90625 L 18.296875 -16.703125 C 18.296875 -14.035156 19.628906 -12.703125 22.296875 -12.703125 L 27.703125 -12.703125 C 30.367188 -12.703125 31.703125 -14.035156 31.703125 -16.703125 L 31.703125 -26.796875 L 7.703125 -34.59375 C 5.898438 -35.195312 5 -36.429688 5 -38.296875 L 5 -55.59375 C 5 -60.332031 6.234375 -63.914062 8.703125 -66.34375 C 11.171875 -68.78125 14.738281 -70 19.40625 -70 Z M 19.40625 -70 "/></g></g></g><g fill="#fefefe" fill-opacity="1"><g transform="translate(88.751568, 227.024867)"><g><path d="M 18.59375 -13.203125 L 18.59375 -68.40625 C 18.59375 -69.46875 18.0625 -70 17 -70 L 6.59375 -70 C 5.53125 -70 5 -69.46875 5 -68.40625 L 5 -1.59375 C 5 -0.53125 5.53125 0 6.59375 0 L 38.40625 0 C 39.46875 0 40 -0.53125 40 -1.59375 L 40 -11.59375 C 40 -12.664062 39.46875 -13.203125 38.40625 -13.203125 Z M 18.59375 -13.203125 "/></g></g></g><g fill="#fefefe" fill-opacity="1"><g transform="translate(132.749864, 227.024867)"><g><path d="M 44.90625 -68.40625 L 44.90625 -58.40625 C 44.90625 -57.269531 44.367188 -56.703125 43.296875 -56.703125 L 18.59375 -56.703125 L 18.59375 -41.296875 L 37.40625 -41.296875 C 38.46875 -41.296875 39 -40.726562 39 -39.59375 L 39 -29.703125 C 39 -28.566406 38.46875 -28 37.40625 -28 L 18.59375 -28 L 18.59375 -13.203125 L 43.296875 -13.203125 C 44.367188 -13.203125 44.90625 -12.664062 44.90625 -11.59375 L 44.90625 -1.59375 C 44.90625 -0.53125 44.367188 0 43.296875 0 L 6.5 0 C 5.5 0 5 -0.53125 5 -1.59375 L 5 -68.40625 C 5 -69.46875 5.5 -70 6.5 -70 L 43.296875 -70 C 44.367188 -70 44.90625 -69.46875 44.90625 -68.40625 Z M 44.90625 -68.40625 "/></g></g></g><g fill="#fefefe" fill-opacity="1"><g transform="translate(182.647943, 227.024867)"><g><path d="M 44.90625 -68.40625 L 44.90625 -58.40625 C 44.90625 -57.269531 44.367188 -56.703125 43.296875 -56.703125 L 18.59375 -56.703125 L 18.59375 -41.296875 L 37.40625 -41.296875 C 38.46875 -41.296875 39 -40.726562 39 -39.59375 L 39 -29.703125 C 39 -28.566406 38.46875 -28 37.40625 -28 L 18.59375 -28 L 18.59375 -13.203125 L 43.296875 -13.203125 C 44.367188 -13.203125 44.90625 -12.664062 44.90625 -11.59375 L 44.90625 -1.59375 C 44.90625 -0.53125 44.367188 0 43.296875 0 L 6.5 0 C 5.5 0 5 -0.53125 5 -1.59375 L 5 -68.40625 C 5 -69.46875 5.5 -70 6.5 -70 L 43.296875 -70 C 44.367188 -70 44.90625 -69.46875 44.90625 -68.40625 Z M 44.90625 -68.40625 "/></g></g></g><g fill="#fefefe" fill-opacity="1"><g transform="translate(232.546023, 227.024867)"><g><path d="M 38.296875 -70 L 47.40625 -70 C 48.9375 -70 49.535156 -69.265625 49.203125 -67.796875 L 33.296875 -1.796875 C 33.035156 -0.597656 32.300781 0 31.09375 0 L 21.09375 0 C 19.96875 0 19.238281 -0.597656 18.90625 -1.796875 L 3.09375 -67.796875 C 2.757812 -69.265625 3.363281 -70 4.90625 -70 L 14 -70 C 15.195312 -70 15.929688 -69.398438 16.203125 -68.203125 L 26.09375 -23 L 36.09375 -68.203125 C 36.425781 -69.398438 37.160156 -70 38.296875 -70 Z M 38.296875 -70 "/></g></g></g><g fill="#fefefe" fill-opacity="1"><g transform="translate(284.844008, 227.024867)"><g><path d="M 5 -1.59375 L 5 -68.40625 C 5 -69.46875 5.53125 -70 6.59375 -70 L 30.59375 -70 C 35.332031 -70 38.914062 -68.765625 41.34375 -66.296875 C 43.78125 -63.828125 45 -60.226562 45 -55.5 L 45 -14.40625 C 45 -9.738281 43.78125 -6.171875 41.34375 -3.703125 C 38.914062 -1.234375 35.332031 0 30.59375 0 L 6.59375 0 C 5.53125 0 5 -0.53125 5 -1.59375 Z M 18.59375 -13.203125 L 27.796875 -13.203125 C 30.460938 -13.203125 31.796875 -14.535156 31.796875 -17.203125 L 31.796875 -52.703125 C 31.796875 -55.429688 30.460938 -56.796875 27.796875 -56.796875 L 18.59375 -56.796875 Z M 18.59375 -13.203125 "/></g></g></g><g clip-path="url(#7e26634608)"><g clip-path="url(#1867715b9a)"><g transform="matrix(1, 0, 0, 1, 12, 233)"><g clip-path="url(#11ba64bbe5)"><g clip-path="url(#231c7b160e)"><g clip-path="url(#3885fc2deb)"><path fill="#fefefe" d="M 0.925781 0.683594 L 349.703125 0.683594 L 349.703125 23.171875 L 0.925781 23.171875 Z M 0.925781 0.683594 " fill-opacity="1" fill-rule="nonzero"/></g></g></g></g></g></g><g clip-path="url(#372634086c)"><g transform="matrix(1, 0, 0, 1, 12, 233)"><g clip-path="url(#33466efd85)"><g clip-path="url(#f255f818de)"><path fill="#fefefe" d="M 0.925781 0.6875 L 349.488281 0.6875 L 349.488281 11.929688 L 0.925781 11.929688 Z M 0.925781 0.6875 " fill-opacity="1" fill-rule="nonzero"/></g></g></g></g><path stroke-linecap="butt" transform="matrix(0, -0.75, 0.75, 0, 339.80386, 233.678934)" fill="none" stroke-linejoin="miter" d="M -0.00100433 5.001104 L 116.16567 5.001104 " stroke="#fefefe" stroke-width="10" stroke-opacity="1" stroke-miterlimit="4"/><g clip-path="url(#ec86750f67)"><g transform="matrix(1, 0, 0, 1, 12, 135)"><g clip-path="url(#3dfad21eae)"><g clip-path="url(#0b8613eb6f)"><path fill="#fefefe" d="M 0.925781 0.316406 L 349.488281 0.316406 L 349.488281 11.558594 L 0.925781 11.558594 Z M 0.925781 0.316406 " fill-opacity="1" fill-rule="nonzero"/></g></g></g></g><g clip-path="url(#692b5ce594)"><g clip-path="url(#138a8edc90)"><g transform="matrix(1, 0, 0, 1, 12, 125)"><g clip-path="url(#c119ad9034)"><g clip-path="url(#efd8bda46a)"><g clip-path="url(#e748bf1de3)"><path fill="#fefefe" d="M 0.925781 0.644531 L 349.734375 0.644531 L 349.734375 10.316406 L 0.925781 10.316406 Z M 0.925781 0.644531 " fill-opacity="1" fill-rule="nonzero"/></g></g></g></g></g></g><g clip-path="url(#d94c6648ea)"><g transform="matrix(1, 0, 0, 1, 339, 135)"><g clip-path="url(#e5424d6458)"><g clip-path="url(#c1bbb6bb08)"><path fill="#fefefe" d="M 0.890625 98.683594 L 0.890625 0.375 L 8.382812 0.375 L 8.382812 98.683594 Z M 0.890625 98.683594 " fill-opacity="1" fill-rule="nonzero"/></g></g></g></g><g clip-path="url(#d3f6a29f1e)"><g transform="matrix(1, 0, 0, 1, 354, 135)"><g clip-path="url(#cbf40abcef)"><g clip-path="url(#3a499cd33d)"><path fill="#fefefe" d="M 0.226562 109.921875 L 0.226562 0.378906 L 7.71875 0.378906 L 7.71875 109.921875 Z M 0.226562 109.921875 " fill-opacity="1" fill-rule="nonzero"/></g></g></g></g><g clip-path="url(#96162abe41)"><g transform="matrix(1, 0, 0, 1, 12, 135)"><g clip-path="url(#560a13dbfd)"><g clip-path="url(#a3e8f16c67)"><path fill="#fefefe" d="M 0.921875 109.925781 L 0.921875 0.382812 L 8.414062 0.382812 L 8.414062 109.925781 Z M 0.921875 109.925781 " fill-opacity="1" fill-rule="nonzero"/></g></g></g></g><g clip-path="url(#0b6fd1e7b1)"><g transform="matrix(1, 0, 0, 1, 26, 135)"><g clip-path="url(#a7f905973d)"><g clip-path="url(#050b98e287)"><path fill="#fefefe" d="M 0.316406 98.683594 L 0.316406 0.375 L 7.808594 0.375 L 7.808594 98.683594 Z M 0.316406 98.683594 " fill-opacity="1" fill-rule="nonzero"/></g></g></g></g><path stroke-linecap="round" transform="matrix(0.75, 0.00000292168, -0.00000292168, 0.75, 15.014912, 134.564948)" fill="none" stroke-linejoin="miter" d="M 1.000955 1.001941 L 458.698901 1.000158 " stroke="#fefefe" stroke-width="2" stroke-opacity="1" stroke-miterlimit="4"/></svg>